<svg width="85" height="123" viewBox="0 0 85 123" fill="none" xmlns="http://www.w3.org/2000/svg">
<g clip-path="url(#clip0_527_836)">
<path d="M31.4571 27.8194C28.9126 30.3858 27.3335 33.7572 26.9883 37.3598C26.6432 40.9624 27.5535 44.5737 29.5642 47.579C31.5749 50.5844 34.5618 52.7982 38.0166 53.8436C41.4715 54.889 45.1808 54.7016 48.5134 53.3131C51.846 51.9246 54.5959 49.4209 56.2952 46.2281C57.9944 43.0352 58.5381 39.3505 57.8336 35.801C57.1292 32.2514 55.22 29.0563 52.4312 26.7594C49.6424 24.4625 46.1462 23.2056 42.5375 23.2028C40.4732 23.1658 38.4234 23.5567 36.5168 24.3511C34.6101 25.1455 32.8875 26.3262 31.4571 27.8194ZM37.5895 63.9093C31.375 62.6857 25.8372 59.1857 22.055 54.0911C18.2729 48.9965 16.5172 42.6722 17.1302 36.3504C17.7431 30.0286 20.6806 24.1621 25.3705 19.8937C30.0605 15.6252 36.1668 13.2607 42.5 13.2607C48.8332 13.2607 54.9396 15.6252 59.6295 19.8937C64.3194 24.1621 67.2569 30.0286 67.8699 36.3504C68.4828 42.6722 66.7271 48.9965 62.945 54.0911C59.1628 59.1857 53.625 62.6857 47.4105 63.9093V73.3529H37.5895V63.9093ZM9.32616 -0.0300598C8.10143 -0.0300598 6.88871 0.211841 5.75721 0.68189C4.62571 1.15194 3.5976 1.8409 2.73159 2.70944C1.86557 3.57797 1.17861 4.60908 0.709928 5.74387C0.241245 6.87867 0 8.09496 0 9.32326V75.8642C0.0039651 78.3436 0.987799 80.7203 2.73593 82.4735C4.48407 84.2267 6.85393 85.2135 9.32616 85.2175H75.6739C78.1487 85.2175 80.5224 84.2325 82.2737 82.4788C84.0251 80.7252 85.011 78.3462 85.015 75.8642V9.35332C85.015 8.12376 84.7733 6.90627 84.3037 5.77049C83.8341 4.63471 83.1457 3.60295 82.2781 2.73422C81.4105 1.86548 80.3807 1.1768 79.2474 0.707634C78.1142 0.238471 76.8998 -0.00197814 75.6739 -1.35601e-06L9.32616 -0.0300598Z" fill="url(#paint0_linear_527_836)"/>
<path fill-rule="evenodd" clip-rule="evenodd" d="M37.5898 63.9093C31.3753 62.6857 25.8375 59.1857 22.0553 54.0911C18.2732 48.9965 16.5175 42.6722 17.1304 36.3504C17.7434 30.0286 20.6809 24.1621 25.3708 19.8936C30.0608 15.6252 36.1671 13.2607 42.5003 13.2607C48.8335 13.2607 54.9398 15.6252 59.6298 19.8936C64.3197 24.1621 67.2572 30.0286 67.8701 36.3504C68.4831 42.6722 66.7274 48.9965 62.9453 54.0911C59.1631 59.1857 53.6253 62.6857 47.4108 63.9093V73.3529H37.5898V63.9093ZM26.9886 37.3598C27.3337 33.7572 28.9129 30.3858 31.4574 27.8193C32.8878 26.3262 34.6104 25.1454 36.517 24.3511C38.4237 23.5567 40.4734 23.1657 42.5378 23.2028C46.1465 23.2056 49.6427 24.4625 52.4315 26.7594C55.2203 29.0563 57.1294 32.2514 57.8339 35.8009C58.5384 39.3505 57.9947 43.0352 56.2955 46.2281C54.5962 49.4209 51.8463 51.9246 48.5137 53.3131C45.1811 54.7016 41.4718 54.889 38.0169 53.8436C34.5621 52.7981 31.5752 50.5843 29.5645 47.579C27.5538 44.5736 26.6435 40.9624 26.9886 37.3598Z" fill="white"/>
</g>
</svg>
